<mxfile host="65bd71144e">
    <diagram id="tBTZOynKKMIQyIz6T4Pn" name="Page-1">
        <mxGraphModel dx="2071" dy="1465" grid="0" gridSize="10" guides="1" tooltips="1" connect="1" arrows="1" fold="1" page="0" pageScale="1" pageWidth="827" pageHeight="1169" math="0" shadow="0">
            <root>
                <mxCell id="0"/>
                <mxCell id="1" parent="0"/>
                <mxCell id="15" style="edgeStyle=none;html=1;endArrow=none;endFill=0;" parent="1" source="2" target="10" edge="1">
                    <mxGeometry relative="1" as="geometry"/>
                </mxCell>
                <mxCell id="48" style="edgeStyle=orthogonalEdgeStyle;html=1;endArrow=none;endFill=0;" parent="1" source="2" target="30" edge="1">
                    <mxGeometry relative="1" as="geometry">
                        <Array as="points">
                            <mxPoint x="501" y="-108"/>
                        </Array>
                    </mxGeometry>
                </mxCell>
                <mxCell id="2" value="utilisateur" style="swimlane;fontStyle=0;childLayout=stackLayout;horizontal=1;startSize=30;horizontalStack=0;resizeParent=1;resizeParentMax=0;resizeLast=0;collapsible=1;marginBottom=0;whiteSpace=wrap;html=1;" parent="1" vertex="1">
                    <mxGeometry x="175" y="-121" width="140" height="120" as="geometry"/>
                </mxCell>
                <mxCell id="3" value="&lt;u&gt;mail : string&lt;/u&gt;" style="text;strokeColor=none;fillColor=none;align=left;verticalAlign=middle;spacingLeft=4;spacingRight=4;overflow=hidden;points=[[0,0.5],[1,0.5]];portConstraint=eastwest;rotatable=0;whiteSpace=wrap;html=1;" parent="2" vertex="1">
                    <mxGeometry y="30" width="140" height="30" as="geometry"/>
                </mxCell>
                <mxCell id="4" value="nom_utilisateur&amp;nbsp;: string" style="text;strokeColor=none;fillColor=none;align=left;verticalAlign=middle;spacingLeft=4;spacingRight=4;overflow=hidden;points=[[0,0.5],[1,0.5]];portConstraint=eastwest;rotatable=0;whiteSpace=wrap;html=1;" parent="2" vertex="1">
                    <mxGeometry y="60" width="140" height="30" as="geometry"/>
                </mxCell>
                <mxCell id="5" value="mdp : string" style="text;strokeColor=none;fillColor=none;align=left;verticalAlign=middle;spacingLeft=4;spacingRight=4;overflow=hidden;points=[[0,0.5],[1,0.5]];portConstraint=eastwest;rotatable=0;whiteSpace=wrap;html=1;" parent="2" vertex="1">
                    <mxGeometry y="90" width="140" height="30" as="geometry"/>
                </mxCell>
                <mxCell id="6" style="edgeStyle=none;html=1;entryX=0;entryY=0.25;entryDx=0;entryDy=0;exitX=0;exitY=0.5;exitDx=0;exitDy=0;endArrow=none;endFill=0;" parent="2" source="5" target="2" edge="1">
                    <mxGeometry relative="1" as="geometry">
                        <mxPoint x="-186" y="37" as="targetPoint"/>
                        <mxPoint x="-36" y="65" as="sourcePoint"/>
                        <Array as="points">
                            <mxPoint x="-44" y="105"/>
                            <mxPoint x="-44" y="30"/>
                        </Array>
                    </mxGeometry>
                </mxCell>
                <mxCell id="7" value="s'abonne" style="text;html=1;strokeColor=none;fillColor=none;align=center;verticalAlign=middle;whiteSpace=wrap;rounded=0;" parent="1" vertex="1">
                    <mxGeometry x="61" y="-69" width="60" height="30" as="geometry"/>
                </mxCell>
                <mxCell id="8" value="0..*" style="text;html=1;strokeColor=none;fillColor=none;align=center;verticalAlign=middle;whiteSpace=wrap;rounded=0;" parent="1" vertex="1">
                    <mxGeometry x="121" y="-121" width="60" height="30" as="geometry"/>
                </mxCell>
                <mxCell id="9" value="0..*" style="text;html=1;strokeColor=none;fillColor=none;align=center;verticalAlign=middle;whiteSpace=wrap;rounded=0;" parent="1" vertex="1">
                    <mxGeometry x="127" y="-23" width="60" height="30" as="geometry"/>
                </mxCell>
                <mxCell id="10" value="mot_cle" style="swimlane;fontStyle=0;childLayout=stackLayout;horizontal=1;startSize=30;horizontalStack=0;resizeParent=1;resizeParentMax=0;resizeLast=0;collapsible=1;marginBottom=0;whiteSpace=wrap;html=1;" parent="1" vertex="1">
                    <mxGeometry x="177" y="-289" width="140" height="60" as="geometry"/>
                </mxCell>
                <mxCell id="11" value="&lt;u&gt;mot : string&lt;/u&gt;" style="text;strokeColor=none;fillColor=none;align=left;verticalAlign=middle;spacingLeft=4;spacingRight=4;overflow=hidden;points=[[0,0.5],[1,0.5]];portConstraint=eastwest;rotatable=0;whiteSpace=wrap;html=1;" parent="10" vertex="1">
                    <mxGeometry y="30" width="140" height="30" as="geometry"/>
                </mxCell>
                <mxCell id="16" value="0..*" style="text;html=1;strokeColor=none;fillColor=none;align=center;verticalAlign=middle;whiteSpace=wrap;rounded=0;" parent="1" vertex="1">
                    <mxGeometry x="233" y="-229" width="60" height="30" as="geometry"/>
                </mxCell>
                <mxCell id="17" value="1" style="text;html=1;strokeColor=none;fillColor=none;align=center;verticalAlign=middle;whiteSpace=wrap;rounded=0;" parent="1" vertex="1">
                    <mxGeometry x="235" y="-155" width="60" height="30" as="geometry"/>
                </mxCell>
                <mxCell id="18" value="crée" style="text;html=1;strokeColor=none;fillColor=none;align=center;verticalAlign=middle;whiteSpace=wrap;rounded=0;" parent="1" vertex="1">
                    <mxGeometry x="197" y="-189" width="60" height="30" as="geometry"/>
                </mxCell>
                <mxCell id="21" style="edgeStyle=none;html=1;endArrow=none;endFill=0;" parent="1" source="19" target="2" edge="1">
                    <mxGeometry relative="1" as="geometry"/>
                </mxCell>
                <mxCell id="19" value="commentaire" style="swimlane;fontStyle=0;childLayout=stackLayout;horizontal=1;startSize=30;horizontalStack=0;resizeParent=1;resizeParentMax=0;resizeLast=0;collapsible=1;marginBottom=0;whiteSpace=wrap;html=1;" parent="1" vertex="1">
                    <mxGeometry x="177" y="105" width="140" height="60" as="geometry"/>
                </mxCell>
                <mxCell id="20" value="texte : string" style="text;strokeColor=none;fillColor=none;align=left;verticalAlign=middle;spacingLeft=4;spacingRight=4;overflow=hidden;points=[[0,0.5],[1,0.5]];portConstraint=eastwest;rotatable=0;whiteSpace=wrap;html=1;" parent="19" vertex="1">
                    <mxGeometry y="30" width="140" height="30" as="geometry"/>
                </mxCell>
                <mxCell id="22" value="1" style="text;html=1;strokeColor=none;fillColor=none;align=center;verticalAlign=middle;whiteSpace=wrap;rounded=0;" parent="1" vertex="1">
                    <mxGeometry x="231" y="-1" width="60" height="30" as="geometry"/>
                </mxCell>
                <mxCell id="23" value="0..*" style="text;html=1;strokeColor=none;fillColor=none;align=center;verticalAlign=middle;whiteSpace=wrap;rounded=0;" parent="1" vertex="1">
                    <mxGeometry x="235" y="79" width="60" height="30" as="geometry"/>
                </mxCell>
                <mxCell id="24" value="écrit" style="text;html=1;strokeColor=none;fillColor=none;align=center;verticalAlign=middle;whiteSpace=wrap;rounded=0;" parent="1" vertex="1">
                    <mxGeometry x="193" y="39" width="60" height="30" as="geometry"/>
                </mxCell>
                <mxCell id="26" value="contenu_numérique" style="swimlane;fontStyle=0;childLayout=stackLayout;horizontal=1;startSize=30;horizontalStack=0;resizeParent=1;resizeParentMax=0;resizeLast=0;collapsible=1;marginBottom=0;whiteSpace=wrap;html=1;" parent="1" vertex="1">
                    <mxGeometry x="-44" y="-166" width="140" height="90" as="geometry"/>
                </mxCell>
                <mxCell id="27" value="&lt;u&gt;code : string&lt;/u&gt;" style="text;strokeColor=none;fillColor=none;align=left;verticalAlign=middle;spacingLeft=4;spacingRight=4;overflow=hidden;points=[[0,0.5],[1,0.5]];portConstraint=eastwest;rotatable=0;whiteSpace=wrap;html=1;" parent="26" vertex="1">
                    <mxGeometry y="30" width="140" height="30" as="geometry"/>
                </mxCell>
                <mxCell id="28" value="datePubli : date" style="text;strokeColor=none;fillColor=none;align=left;verticalAlign=middle;spacingLeft=4;spacingRight=4;overflow=hidden;points=[[0,0.5],[1,0.5]];portConstraint=eastwest;rotatable=0;whiteSpace=wrap;html=1;" parent="26" vertex="1">
                    <mxGeometry y="60" width="140" height="30" as="geometry"/>
                </mxCell>
                <mxCell id="29" style="edgeStyle=orthogonalEdgeStyle;html=1;endArrow=classic;endFill=1;" parent="1" source="19" target="26" edge="1">
                    <mxGeometry relative="1" as="geometry"/>
                </mxCell>
                <mxCell id="43" style="edgeStyle=orthogonalEdgeStyle;html=1;endArrow=classic;endFill=1;" parent="1" source="30" target="26" edge="1">
                    <mxGeometry relative="1" as="geometry">
                        <Array as="points">
                            <mxPoint x="558" y="-365"/>
                            <mxPoint x="26" y="-365"/>
                        </Array>
                    </mxGeometry>
                </mxCell>
                <mxCell id="72" style="html=1;endArrow=classic;endFill=1;" parent="1" source="30" target="67" edge="1">
                    <mxGeometry relative="1" as="geometry"/>
                </mxCell>
                <mxCell id="30" value="photographie" style="swimlane;fontStyle=0;childLayout=stackLayout;horizontal=1;startSize=30;horizontalStack=0;resizeParent=1;resizeParentMax=0;resizeLast=0;collapsible=1;marginBottom=0;whiteSpace=wrap;html=1;" parent="1" vertex="1">
                    <mxGeometry x="486" y="-300" width="140" height="60" as="geometry"/>
                </mxCell>
                <mxCell id="79" value="nbVues : int" style="text;strokeColor=none;fillColor=none;align=left;verticalAlign=middle;spacingLeft=4;spacingRight=4;overflow=hidden;points=[[0,0.5],[1,0.5]];portConstraint=eastwest;rotatable=0;whiteSpace=wrap;html=1;" vertex="1" parent="30">
                    <mxGeometry y="30" width="140" height="30" as="geometry"/>
                </mxCell>
                <mxCell id="35" style="edgeStyle=orthogonalEdgeStyle;html=1;endArrow=none;endFill=0;" parent="1" source="2" target="30" edge="1">
                    <mxGeometry relative="1" as="geometry">
                        <mxPoint x="592.8125" y="-63" as="sourcePoint"/>
                        <mxPoint x="398" y="123.55128205128199" as="targetPoint"/>
                        <Array as="points">
                            <mxPoint x="569" y="-14"/>
                        </Array>
                    </mxGeometry>
                </mxCell>
                <mxCell id="36" value="publie" style="text;html=1;strokeColor=none;fillColor=none;align=center;verticalAlign=middle;whiteSpace=wrap;rounded=0;" parent="1" vertex="1">
                    <mxGeometry x="434" y="-44" width="60" height="30" as="geometry"/>
                </mxCell>
                <mxCell id="40" value="0..*" style="text;html=1;strokeColor=none;fillColor=none;align=center;verticalAlign=middle;whiteSpace=wrap;rounded=0;" parent="1" vertex="1">
                    <mxGeometry x="526" y="-242" width="60" height="30" as="geometry"/>
                </mxCell>
                <mxCell id="42" value="1" style="text;html=1;strokeColor=none;fillColor=none;align=center;verticalAlign=middle;whiteSpace=wrap;rounded=0;" parent="1" vertex="1">
                    <mxGeometry x="299" y="-41" width="60" height="30" as="geometry"/>
                </mxCell>
                <mxCell id="44" style="edgeStyle=orthogonalEdgeStyle;html=1;endArrow=none;endFill=0;" parent="1" source="11" target="30" edge="1">
                    <mxGeometry relative="1" as="geometry">
                        <Array as="points">
                            <mxPoint x="358" y="-259"/>
                            <mxPoint x="358" y="-259"/>
                        </Array>
                    </mxGeometry>
                </mxCell>
                <mxCell id="45" value="0..*" style="text;html=1;strokeColor=none;fillColor=none;align=center;verticalAlign=middle;whiteSpace=wrap;rounded=0;" parent="1" vertex="1">
                    <mxGeometry x="302" y="-285" width="60" height="30" as="geometry"/>
                </mxCell>
                <mxCell id="46" value="1..*" style="text;html=1;strokeColor=none;fillColor=none;align=center;verticalAlign=middle;whiteSpace=wrap;rounded=0;" parent="1" vertex="1">
                    <mxGeometry x="438" y="-285" width="60" height="30" as="geometry"/>
                </mxCell>
                <mxCell id="47" value="décrit" style="text;html=1;strokeColor=none;fillColor=none;align=center;verticalAlign=middle;whiteSpace=wrap;rounded=0;" parent="1" vertex="1">
                    <mxGeometry x="370" y="-291" width="60" height="30" as="geometry"/>
                </mxCell>
                <mxCell id="49" value="0..*" style="text;html=1;strokeColor=none;fillColor=none;align=center;verticalAlign=middle;whiteSpace=wrap;rounded=0;" parent="1" vertex="1">
                    <mxGeometry x="461" y="-240" width="60" height="30" as="geometry"/>
                </mxCell>
                <mxCell id="50" value="0..*" style="text;html=1;strokeColor=none;fillColor=none;align=center;verticalAlign=middle;whiteSpace=wrap;rounded=0;" parent="1" vertex="1">
                    <mxGeometry x="299" y="-136" width="60" height="30" as="geometry"/>
                </mxCell>
                <mxCell id="51" value="apprécie" style="text;html=1;strokeColor=none;fillColor=none;align=center;verticalAlign=middle;whiteSpace=wrap;rounded=0;" parent="1" vertex="1">
                    <mxGeometry x="434" y="-148" width="60" height="30" as="geometry"/>
                </mxCell>
                <mxCell id="60" style="edgeStyle=orthogonalEdgeStyle;html=1;endArrow=none;endFill=0;" parent="1" source="52" target="30" edge="1">
                    <mxGeometry relative="1" as="geometry">
                        <Array as="points">
                            <mxPoint x="656" y="-54"/>
                            <mxPoint x="619" y="-54"/>
                        </Array>
                    </mxGeometry>
                </mxCell>
                <mxCell id="52" value="discussion" style="swimlane;fontStyle=0;childLayout=stackLayout;horizontal=1;startSize=30;horizontalStack=0;resizeParent=1;resizeParentMax=0;resizeLast=0;collapsible=1;marginBottom=0;whiteSpace=wrap;html=1;" parent="1" vertex="1">
                    <mxGeometry x="586" y="90" width="140" height="90" as="geometry"/>
                </mxCell>
                <mxCell id="53" value="&lt;u&gt;idDiscussion : int&lt;/u&gt;" style="text;strokeColor=none;fillColor=none;align=left;verticalAlign=middle;spacingLeft=4;spacingRight=4;overflow=hidden;points=[[0,0.5],[1,0.5]];portConstraint=eastwest;rotatable=0;whiteSpace=wrap;html=1;" parent="52" vertex="1">
                    <mxGeometry y="30" width="140" height="30" as="geometry"/>
                </mxCell>
                <mxCell id="54" value="titre : string" style="text;strokeColor=none;fillColor=none;align=left;verticalAlign=middle;spacingLeft=4;spacingRight=4;overflow=hidden;points=[[0,0.5],[1,0.5]];portConstraint=eastwest;rotatable=0;whiteSpace=wrap;html=1;" parent="52" vertex="1">
                    <mxGeometry y="60" width="140" height="30" as="geometry"/>
                </mxCell>
                <mxCell id="56" style="edgeStyle=orthogonalEdgeStyle;html=1;endArrow=none;endFill=0;" parent="1" source="20" target="52" edge="1">
                    <mxGeometry relative="1" as="geometry">
                        <Array as="points">
                            <mxPoint x="388" y="135"/>
                            <mxPoint x="388" y="135"/>
                        </Array>
                    </mxGeometry>
                </mxCell>
                <mxCell id="57" value="1" style="text;html=1;strokeColor=none;fillColor=none;align=center;verticalAlign=middle;whiteSpace=wrap;rounded=0;" parent="1" vertex="1">
                    <mxGeometry x="545" y="133" width="60" height="30" as="geometry"/>
                </mxCell>
                <mxCell id="58" value="1..*" style="text;html=1;strokeColor=none;fillColor=none;align=center;verticalAlign=middle;whiteSpace=wrap;rounded=0;" parent="1" vertex="1">
                    <mxGeometry x="307" y="133" width="60" height="30" as="geometry"/>
                </mxCell>
                <mxCell id="59" value="est_publie" style="text;html=1;strokeColor=none;fillColor=none;align=center;verticalAlign=middle;whiteSpace=wrap;rounded=0;" parent="1" vertex="1">
                    <mxGeometry x="426" y="107" width="60" height="30" as="geometry"/>
                </mxCell>
                <mxCell id="61" value="concerne" style="text;html=1;strokeColor=none;fillColor=none;align=center;verticalAlign=middle;whiteSpace=wrap;rounded=0;" parent="1" vertex="1">
                    <mxGeometry x="618" y="-86" width="60" height="30" as="geometry"/>
                </mxCell>
                <mxCell id="62" value="1" style="text;html=1;strokeColor=none;fillColor=none;align=center;verticalAlign=middle;whiteSpace=wrap;rounded=0;" parent="1" vertex="1">
                    <mxGeometry x="605" y="-240" width="60" height="30" as="geometry"/>
                </mxCell>
                <mxCell id="63" value="0..1" style="text;html=1;strokeColor=none;fillColor=none;align=center;verticalAlign=middle;whiteSpace=wrap;rounded=0;" parent="1" vertex="1">
                    <mxGeometry x="646" y="57" width="60" height="30" as="geometry"/>
                </mxCell>
                <mxCell id="64" value="La discussion se crée lors de la 1ère publication d'un commentaire sur la photo&lt;br&gt;&lt;br&gt;On s'assure aussi dans le code que la discussion se supprime en cascade de la photographie" style="shape=note;whiteSpace=wrap;html=1;backgroundOutline=1;darkOpacity=0.05;strokeColor=default;size=17;fillColor=#333300;gradientColor=none;" parent="1" vertex="1">
                    <mxGeometry x="702" y="-114" width="160" height="166" as="geometry"/>
                </mxCell>
                <mxCell id="66" value="" style="endArrow=none;dashed=1;html=1;" parent="1" source="52" target="64" edge="1">
                    <mxGeometry width="50" height="50" relative="1" as="geometry">
                        <mxPoint x="332" y="-37" as="sourcePoint"/>
                        <mxPoint x="382" y="-87" as="targetPoint"/>
                    </mxGeometry>
                </mxCell>
                <mxCell id="67" value="&amp;lt;&amp;lt;Enumération&amp;gt;&amp;gt;&lt;br&gt;Licence" style="swimlane;fontStyle=0;childLayout=stackLayout;horizontal=1;startSize=42;horizontalStack=0;resizeParent=1;resizeParentMax=0;resizeLast=0;collapsible=1;marginBottom=0;whiteSpace=wrap;html=1;fillColor=#330000;gradientColor=none;swimlaneFillColor=none;glass=0;rounded=0;shadow=0;" parent="1" vertex="1">
                    <mxGeometry x="689" y="-413" width="140" height="152" as="geometry"/>
                </mxCell>
                <mxCell id="68" value="tous droits réservés" style="text;strokeColor=none;fillColor=#330000;align=left;verticalAlign=middle;spacingLeft=4;spacingRight=4;overflow=hidden;points=[[0,0.5],[1,0.5]];portConstraint=eastwest;rotatable=0;whiteSpace=wrap;html=1;" parent="67" vertex="1">
                    <mxGeometry y="42" width="140" height="30" as="geometry"/>
                </mxCell>
                <mxCell id="69" value="utilisation commerciale autorisée" style="text;strokeColor=none;fillColor=#330000;align=left;verticalAlign=middle;spacingLeft=4;spacingRight=4;overflow=hidden;points=[[0,0.5],[1,0.5]];portConstraint=eastwest;rotatable=0;whiteSpace=wrap;html=1;" parent="67" vertex="1">
                    <mxGeometry y="72" width="140" height="40" as="geometry"/>
                </mxCell>
                <mxCell id="70" value="modification de l'image autorisées" style="text;strokeColor=none;fillColor=#330000;align=left;verticalAlign=middle;spacingLeft=4;spacingRight=4;overflow=hidden;points=[[0,0.5],[1,0.5]];portConstraint=eastwest;rotatable=0;whiteSpace=wrap;html=1;" parent="67" vertex="1">
                    <mxGeometry y="112" width="140" height="40" as="geometry"/>
                </mxCell>
                <mxCell id="73" value="+licence" style="text;html=1;strokeColor=none;fillColor=none;align=center;verticalAlign=middle;whiteSpace=wrap;rounded=0;shadow=0;glass=0;sketch=0;" parent="1" vertex="1">
                    <mxGeometry x="626" y="-344" width="60" height="30" as="geometry"/>
                </mxCell>
                <mxCell id="77" value="La datePubli est rempli automatiquement par la date du jour au moment de l'insertion" style="shape=note;whiteSpace=wrap;html=1;backgroundOutline=1;darkOpacity=0.05;strokeColor=default;size=17;fillColor=#333300;gradientColor=none;" vertex="1" parent="1">
                    <mxGeometry x="-123" y="-45" width="116" height="118" as="geometry"/>
                </mxCell>
                <mxCell id="78" value="" style="endArrow=none;dashed=1;html=1;" edge="1" parent="1" source="28" target="77">
                    <mxGeometry width="50" height="50" relative="1" as="geometry">
                        <mxPoint x="730.6502835538754" y="100" as="sourcePoint"/>
                        <mxPoint x="800" y="51.72894736842113" as="targetPoint"/>
                    </mxGeometry>
                </mxCell>
            </root>
        </mxGraphModel>
    </diagram>
</mxfile>